<?xml version="1.0" encoding="utf-8"?>
<!-- Generator: Adobe Illustrator 22.0.1, SVG Export Plug-In . SVG Version: 6.00 Build 0)  -->
<svg version="1.1" id="Layer_1" xmlns="http://www.w3.org/2000/svg" xmlns:xlink="http://www.w3.org/1999/xlink" x="0px" y="0px"
	 viewBox="0 0 24 24" style="enable-background:new 0 0 24 24;" xml:space="preserve">
<style type="text/css">
	.st0{fill:none;}
</style>
<path class="st0" d="M0,0h24v24H0V0z"/>
<path d="M31.9-6.9C31.9,8.5,44.4,21,59.8,21h111.6c15.3,0,27.9-12.5,27.9-27.9v-167.3H31.9V-6.9z M66.2-106.2l19.7-19.7l29.7,29.6
	l29.6-29.6l19.7,19.7l-29.6,29.6L164.8-47l-19.7,19.7l-29.6-29.6L86-27.4L66.3-47l29.6-29.6L66.2-106.2z M164.4-216.1L150.4-230
	H80.7l-13.9,13.9H17.9v27.9h195.2v-27.9H164.4z"/>
<path class="st0" d="M0,0h24v24H0V0z"/>
</svg>
